<?xml version="1.0" encoding="utf-8"?>
<!-- Generator: Adobe Illustrator 19.2.0, SVG Export Plug-In . SVG Version: 6.00 Build 0)  -->
<svg version="1.1" id="Layer_1" xmlns="http://www.w3.org/2000/svg" xmlns:xlink="http://www.w3.org/1999/xlink"
	 width="50" height="75" viewBox="0 0 20 35" fill="#d11463" xml:space="preserve">
<path class="st0" d="M10.1,9.5l-0.6,0l0-2.3c0.4,0.5,0.6,1.1,0.6,1.5C10.1,9,10.1,9.2,10.1,9.5z M4.3,8.9c0,0.2,0,0.4,0,0.6l0.4,0
	l0-2.1C4.5,7.8,4.3,8.3,4.3,8.9z M3.5,9.5l-0.8,0V8.9c0-2.6,2-4.6,4.4-4.6c2.5,0,4.5,2,4.5,4.5l0,0.6l-0.8,0l0-0.6
	c0-1.1-0.4-2-1.1-2.7C9,5.5,8.1,5.1,7.1,5.1c-0.7,0-1.3,0.2-1.9,0.6C5.2,5.7,4.7,6,4.6,6.2C3.9,6.9,3.5,7.8,3.5,8.9V9.5z M13.1,8.8
	v0.7v0.1c0,0-0.1,0-0.1-0.1c-0.1,0-0.1-0.1-0.2-0.1c-0.1,0-0.3-0.1-0.5-0.1h-0.1V8.8c0-1.4-0.6-2.7-1.5-3.6C9.8,4.2,8.5,3.7,7.2,3.7
	c-1.4,0-2.7,0.6-3.6,1.5C2.7,6.1,2.1,7.4,2.1,8.8v0.7H2h0c-0.3,0-0.5,0.1-0.7,0.1c0,0,0,0-0.1,0V8.8c0-3.3,2.6-6,5.9-6
	C10.4,2.8,13.1,5.5,13.1,8.8z M8.8,18.2l-0.4,0c0.7,0.5,1.5,0.8,2.3,1c0,0,0.1,0,0.1,0c0.2,0,0.4-0.1,0.4-0.4
	c0.1-0.2-0.1-0.5-0.3-0.5c-0.5-0.1-1-0.3-1.5-0.6c0,0,0,0,0,0C9.2,18.1,9,18.2,8.8,18.2z M12.1,14.3L12.1,14.3l-0.5,0c0,0,0,0,0,0
	c0.2,0.1,0.4,0.3,0.7,0.4c0.2,0.1,0.4,0,0.5-0.2c0.1-0.2,0.1-0.4,0-0.5c0,0-0.1,0.1-0.1,0.1C12.6,14.3,12.4,14.3,12.1,14.3z
	 M11.4,17.9c0.1,0,0.1,0,0.2,0c0.2,0,0.3-0.1,0.4-0.3c0.1-0.2,0-0.5-0.2-0.6c-0.9-0.4-1.6-0.8-2.2-1.2l0,1.1
	C10.1,17.2,10.7,17.6,11.4,17.9z M9.5,14.8c0.6,0.6,1.4,1.1,2.5,1.5c0.2,0.1,0.5,0,0.5-0.3c0.1-0.2,0-0.5-0.2-0.6
	c-0.8-0.3-1.5-0.7-2-1.1l-0.8,0L9.5,14.8z M1.6,14.2C1.5,14.2,1.5,14.2,1.6,14.2c-0.2,0.1-0.2,0.2-0.2,0.4c0,0.2,0.2,0.3,0.4,0.3
	c0,0,0.1,0,0.1,0c0.6-0.2,0.9-0.3,1.3-0.6l-1,0C1.9,14.3,1.7,14.3,1.6,14.2z M4.2,14.3c-0.7,0.7-1.4,0.9-2,1c-0.1,0-0.1,0-0.2,0
	c-0.2,0.1-0.4,0.3-0.3,0.5c0,0.2,0.2,0.4,0.4,0.4c0,0,0.1,0,0.1,0c0.1,0,0.1,0,0.2,0C3,16.1,3.8,15.9,4.7,15l0-0.7L4.2,14.3z
	 M2.7,16.8c-0.1,0-0.2,0-0.2,0.1c-0.2,0.1-0.4,0.3-0.3,0.5c0,0.2,0.2,0.4,0.4,0.4c0,0,0.1,0,0.1,0c0.1,0,0.2,0,0.2-0.1
	c0.5-0.1,1.2-0.3,1.9-0.7l0-1.1C4,16.5,3.3,16.7,2.7,16.8z M4.9,17.8c0,0,0-0.1-0.1-0.1c-0.9,0.5-1.6,0.7-1.6,0.7
	c-0.2,0-0.4,0.3-0.3,0.5c0,0.2,0.2,0.4,0.4,0.4c0,0,0,0,0.1,0c0.1,0,1.1-0.2,2.2-1l-0.1,0C5.2,18.2,5,18.1,4.9,17.8z M7.8,20.1
	L7.8,20.1C7.6,20,7.4,20,7.2,20v0c0,0,0,0,0,0h0h0c0,0,0,0,0,0c-0.2,0-0.4,0-0.7,0.1c-0.2,0.1-0.2,0.3-0.2,0.4
	c0,0.1,0.2,0.2,0.3,0.2c0,0,0.1,0,0.1,0c0.1-0.1,0.3-0.1,0.5-0.1c0,0,0,0,0,0c0,0,0,0,0,0c0.2,0,0.3,0,0.5,0.1
	c0.2,0.1,0.3,0,0.4-0.2C8.1,20.4,8,20.2,7.8,20.1z M6.8,18.3c-0.8,0.5-2.4,1.2-2.4,1.2c-0.2,0.1-0.3,0.3-0.2,0.6
	c0.1,0.2,0.3,0.3,0.5,0.2c0.1,0,1.5-0.6,2.3-1.2c0.1,0,0.1,0.1,0.2,0.1c0.5,0.3,1.2,0.9,2.1,1.1c0,0,0.1,0,0.1,0
	c0.2,0,0.4-0.1,0.4-0.3c0-0.2-0.1-0.5-0.3-0.5c-0.8-0.2-1.4-0.7-1.8-1c-0.1-0.1-0.2-0.2-0.3-0.2C7.2,18.2,7,18.2,6.8,18.3z"/>
<path class="st0" d="M2.1,11.2v-1.1l-0.2,0c-0.3,0-0.4,0.2-0.4,0.4l0,1.1c0.1,0,0.1,0.1,0.2,0.1C1.9,11.6,2.1,11.4,2.1,11.2z"/>
<path class="st0" d="M12.2,10.5c0,0.2,0.2,0.4,0.5,0.4c0.1,0,0.1,0,0.2,0l0-0.4c0-0.1-0.1-0.4-0.4-0.4l-0.2,0v0V10.5z"/>
<path class="st0" d="M10.5,12.3c-0.2-0.5-0.4-1.1-0.4-2.2l-0.9,0c0.1,1.2,0.2,2,0.5,2.6c0.2,0.5,0.6,0.8,1,1l1.6,0
	c0.1,0,0.1,0,0.1,0c-0.1-0.1-0.2-0.1-0.4-0.2C11.3,13.1,10.8,12.8,10.5,12.3z"/>
<path class="st0" d="M7.3,6.7C7.3,6.7,7.3,6.7,7.3,6.7c0.6,0,1,0.4,1.3,0.6C8.7,7.6,8.9,7.7,9,7.9l0-1.4c0-0.1,0-0.2-0.1-0.3
	C8.7,6.2,8.6,6.2,8.6,6.2H5.7c-0.1,0-0.4,0.1-0.4,0.4l0,1.7c0.1-0.3,0.3-0.6,0.5-0.8C6.2,7,6.8,6.7,7.3,6.7z"/>
<path class="st0" d="M6.7,15.2c-0.5-0.8-0.8-1.8-1.1-2.8c-0.2-0.7-0.3-1.5-0.4-2.3l-0.2,0l-0.7,0c0.1,1.3,0.3,2.5,0.7,3.6h0l0.2,0
	l0,0.2l0,0.4c0.2,0.5,0.4,1,0.7,1.4c0.5,0.8,1,1.4,1.6,2h0.9c0.1,0,0.3-0.1,0.3-0.2C8,17,7.3,16.2,6.7,15.2z"/>
<path class="st0" d="M5.3,13.7l-0.2,0h0c0.1,0.2,0.1,0.4,0.2,0.6l0-0.4L5.3,13.7z"/>
<path class="st0" d="M8.6,10.3c0-0.1,0-0.3,0-0.4c0-0.4,0-0.9-0.2-1.4C8.1,7.7,7.6,7.6,7.2,7.6c-0.3,0-0.6,0.1-0.8,0.3
	C6.1,8.3,5.9,8.9,6,9.8c0.1,2.1,0.5,3.6,1.2,4.8c0.4,0.7,1,1.3,1.6,1.8c0,0,0.1,0.1,0.1,0.1l0-1.2c-0.4-0.4-0.7-0.8-1-1.2
	C7.3,13,7,11.7,6.9,9.7C6.8,8.9,7,8.6,7,8.5c0,0,0.1-0.1,0.2-0.1c0.1,0,0.2,0,0.3,0.3c0.1,0.3,0.1,0.7,0.1,1.1c0,0.2,0,0.3,0,0.5
	c0.1,1.5,0.4,2.8,1.3,3.8l0-0.3l0-0.2l0.2,0l0.6,0c-0.1-0.1-0.2-0.2-0.3-0.4C8.9,12.6,8.7,11.7,8.6,10.3z"/>
<path class="st0" d="M4.4,12.8c-0.2-0.2-0.4-0.2-0.6,0c-0.7,0.6-1,0.8-1.5,1l1.7,0c0.1-0.1,0.2-0.2,0.4-0.3
	C4.5,13.2,4.5,13,4.4,12.8z"/>
<path class="st0" d="M5.7,16.2c0.2-0.2,0.2-0.5,0-0.6c-0.1-0.1-0.2-0.1-0.4-0.1v0.1l0,1C5.4,16.5,5.6,16.4,5.7,16.2z"/>
<path class="st0" d="M6.4,17C6.3,16.8,6,16.8,5.8,17c-0.2,0.1-0.3,0.3-0.5,0.4c0,0,0,0,0,0.1c0.1,0.2,0.2,0.3,0.4,0.3h0.6
	c0,0,0,0,0,0C6.6,17.5,6.6,17.2,6.4,17z"/>
<path class="st0" d="M3.5,11.3v-1.2l-0.8,0v1.2c0,0.7-0.7,1-1.2,1.1l0,0.8C2.8,13.1,3.5,12.2,3.5,11.3z"/>
<path class="st0" d="M11.6,10.4l0-0.3l-0.8,0l0,0.4c0.2,1.6,1.1,2.2,2,2.4l0-0.9C12.3,11.9,11.7,11.2,11.6,10.4z"/>
</svg>
