<svg xmlns="http://www.w3.org/2000/svg" xmlns:xlink="http://www.w3.org/1999/xlink" version="1.1" x="0px" y="0px" viewBox="0 0 100 125" enable-background="new 0 0 100 100" xml:space="preserve">
  <path d="M68.949,86.284L46.942,72.193c1.958-2.141,3.456-4.998,4.265-8.393c0.043-0.222,1.051-5.45,1.285-7.383  c0.22-1.843,0.517-7.517,0.53-7.811c0-0.37-0.02-0.742-0.051-1.114c0.013-0.169,0.018-0.313,0.018-0.42  c0-8.556-6.698-15.516-14.931-15.516c-8.23,0-14.928,6.96-14.928,15.516c0,0.046,0.001,0.104,0.005,0.169  c-0.048,0.483-0.072,0.934-0.071,1.42c0.013,0.239,0.309,5.912,0.53,7.755c0.233,1.934,1.241,7.162,1.292,7.427  c0.802,3.36,2.28,6.202,4.225,8.334L7.049,86.289c-0.292,0.188-0.47,0.511-0.47,0.857v4.799C6.579,93.63,7.947,95,9.627,95H66.37  c1.683,0,3.049-1.37,3.049-3.055v-4.803C69.419,86.794,69.242,86.473,68.949,86.284z"/>
  <path d="M73.437,5c-11.019,0-19.983,8.965-19.983,19.984c0,4.961,1.836,9.713,5.172,13.396l-2.134,7.087l-0.671,2.351l7.934-5.363  c2.954,1.645,6.299,2.513,9.683,2.513c11.02,0,19.984-8.965,19.984-19.983C93.421,13.965,84.456,5,73.437,5z M69.063,31.949  c0,0.59-0.478,1.068-1.067,1.068h-3.132c-0.59,0-1.068-0.479-1.068-1.068v-7.561c0-0.591,0.479-1.068,1.068-1.068h3.132  c0.59,0,1.067,0.478,1.067,1.068V31.949z M81.86,25.169l-0.045,0.016c0.329,0.327,0.532,0.782,0.532,1.283  c0,0.78-0.494,1.444-1.187,1.698l-0.125,0.101c0.314,0.326,0.509,0.769,0.509,1.257c0,1.001-0.812,1.813-1.813,1.813l-0.009,0.004  v0.001c0.248,0.31,0.396,0.702,0.396,1.13c0,1.002-0.811,1.813-1.812,1.813c-0.071,0-0.142-0.005-0.212-0.014  c-0.069,0.007-0.14,0.012-0.211,0.012l-4.895,0.002c-0.839,0-1.672-0.319-2.346-0.899l-0.454-0.39V23.32l0.529-0.86  c0.828-1.349,2.253-2.806,2.533-6.262c0.059-0.715,0.367-1.914,1.78-1.914c0.349,0,0.616,0.079,0.619,0.08  c1.655,0.598,0.747,3.298,0.563,4.383c-0.173,1.017-0.513,2.01-0.652,2.65l5.519-0.011c1.102,0,1.997,0.896,1.997,1.996  C83.079,24.209,82.634,24.876,81.86,25.169z"/>

<text x="0" y="115" fill="#000000" font-size="5px" font-weight="bold" font-family="'Helvetica Neue', Helvetica, Arial-Unicode, Arial, Sans-serif">
  Created by TMD</text>

<text x="0" y="120" fill="#000000" font-size="5px" font-weight="bold" font-family="'Helvetica Neue', Helvetica, Arial-Unicode, Arial, Sans-serif">
  from the Noun Project</text>
</svg>
