<svg xmlns="http://www.w3.org/2000/svg" xmlns:xlink="http://www.w3.org/1999/xlink" xmlns:sketch="http://www.bohemiancoding.com/sketch/ns" viewBox="0 0 30 37.5" version="1.1" x="0px" y="0px"><title>health_012-syringe-medical-doctor-medic-hospital</title><desc>Created with Sketch.</desc><g stroke="none" stroke-width="1" fill="none" fill-rule="evenodd" sketch:type="MSPage"><g sketch:type="MSArtboardGroup" transform="translate(-90.000000, -90.000000)" fill="#000000"><g sketch:type="MSLayerGroup" transform="translate(98.000000, 90.000000)"><path d="M14.5009232,6 C14.7765557,6 15,6.23193359 15,6.5 C15,6.77614237 14.7763174,7 14.5009232,7 L0.499076843,7 C0.223444314,7 0,6.76806641 0,6.5 C0,6.22385763 0.223682597,6 0.499076843,6 L6,6 L6,1 L4.50342274,1 C4.22539004,1 4,0.768066406 4,0.5 C4,0.223857625 4.23290253,0 4.50342274,0 L10.4965773,0 C10.77461,0 11,0.231933594 11,0.5 C11,0.776142375 10.7670975,1 10.4965773,1 L9,1 L9,6 L14.5009232,6 Z M7,6 L7,1 L8,1 L8,6 L7,6 Z" sketch:type="MSShapeGroup"/><path d="M7.5,26 C7.77614237,26 8,26.2150574 8,26.4904785 L8,29.5095215 C8,29.7804053 7.76806641,30 7.5,30 C7.22385763,30 7,29.7849426 7,29.5095215 L7,26.4904785 C7,26.2195947 7.23193359,26 7.5,26 Z" sketch:type="MSShapeGroup"/><path d="M12,22.4949731 C12,24.9830308 7.50231298,27.1463623 7.50231298,27.1463623 C7.50231298,27.1463623 3.00166543,24.9864317 3.00166543,22.4949731 L3.00166543,6 L4.00175664,6 L4.00175663,22.4180908 C4.00175663,24.1900024 7.5023131,26 7.5023131,26 C7.5023131,26 11.0004614,24.1937866 11.0004614,22.4180908 L11.0004613,6 L12,6 L12,22.4949731 Z" sketch:type="MSShapeGroup"/><path d="M3.49538898,19 L5.50461102,19 C5.7782068,19 6,19.2319336 6,19.5 C6,19.7761424 5.7842474,20 5.50461102,20 L3.49538898,20 C3.2217932,20 3,19.7680664 3,19.5 C3,19.2238576 3.2157526,19 3.49538898,19 Z M3.49047852,10 L6.50952148,10 C6.78040529,10 7,10.2319336 7,10.5 C7,10.7761424 6.78494263,11 6.50952148,11 L3.49047852,11 C3.21959471,11 3,10.7680664 3,10.5 C3,10.2238576 3.21505737,10 3.49047852,10 Z M3.49047852,16 L6.50952148,16 C6.78040529,16 7,16.2319336 7,16.5 C7,16.7761424 6.78494263,17 6.50952148,17 L3.49047852,17 C3.21959471,17 3,16.7680664 3,16.5 C3,16.2238576 3.21505737,16 3.49047852,16 Z M3.49538898,13 L5.50461102,13 C5.7782068,13 6,13.2319336 6,13.5 C6,13.7761424 5.7842474,14 5.50461102,14 L3.49538898,14 C3.2217932,14 3,13.7680664 3,13.5 C3,13.2238576 3.2157526,13 3.49538898,13 Z" sketch:type="MSShapeGroup"/></g></g></g><text x="0" y="45" fill="#000000" font-size="5px" font-weight="bold" font-family="'Helvetica Neue', Helvetica, Arial-Unicode, Arial, Sans-serif">Created by Pham Thi Dieu Linh</text><text x="0" y="50" fill="#000000" font-size="5px" font-weight="bold" font-family="'Helvetica Neue', Helvetica, Arial-Unicode, Arial, Sans-serif">from the Noun Project</text></svg>