<svg xmlns="http://www.w3.org/2000/svg" xmlns:xlink="http://www.w3.org/1999/xlink" version="1.1"
  x="0px" y="0px" viewBox="0 0 100 125"
  enable-background="new 0 0 100 100" xml:space="preserve">
  <g>
    <path fill="#000000" d="M91.354,34.433c-3.077-5.128-8.041-8.369-14.346-9.374c-5.304-0.844-8.89-0.583-11.205-0.064   c-4.671-3.806-11.932-5.137-19.773-3.49c-5.79,1.222-10.045,4.923-13.462,7.897c-3.716,3.232-5.931,5.037-8.38,4.398   c-8.07-2.124-12.852-2.016-15.958,0.378C6.084,35.831,5,38.465,5,42.014v19.413c0,5.005,0.99,8.076,3.206,9.963   c3.018,2.555,7.109,1.887,11.85,1.108c4.688-0.762,10.525-1.711,17.101,0l1.828,0.481c12.799,3.37,23.6,6.212,32.256,6.212   c10.174,0,17.388-3.932,21.379-15.565C95.351,55.674,96.658,43.259,91.354,34.433z M86.947,61.678   c-5.368,15.624-17.388,13.139-46.433,5.497l-1.834-0.481c-3.288-0.861-6.394-1.166-9.265-1.166c-3.95,0-7.449,0.574-10.332,1.049   c-3.001,0.492-6.107,0.996-6.992,0.234c-0.328-0.275-1.09-1.36-1.09-5.386V42.014c0-1.588,0.299-2.625,0.891-3.083   c0.774-0.604,3.212-1.316,10.772,0.671c5.614,1.494,9.799-2.154,13.842-5.673c3.194-2.778,6.493-5.652,10.766-6.552   c8.392-1.773,13.872,0.832,16.046,3.592c1.09,1.38,2.092,3.642,0.697,6.587c-1.278,2.713-2.825,2.825-8.386,1.814   c-4.952-0.905-11.739-2.145-16.532,4.425l4.841,3.54c2.467-3.355,5.649-2.965,10.613-2.06c4.841,0.879,11.457,2.08,14.891-5.145   c1.518-3.206,1.659-6.561,0.475-9.608c1.524-0.056,3.557,0.053,6.142,0.463c4.571,0.73,7.988,2.93,10.156,6.54   C90.182,44.126,89.438,54.414,86.947,61.678z"/>
    <polygon fill="#000000" points="23.589,46.529 20.8,45.427 19.379,49.028 17.958,45.427 15.168,46.529 17.767,53.112    15.168,59.697 17.958,60.799 19.379,57.197 21.058,61.45 23.847,60.348 20.991,53.112  "/>
    <polygon fill="#000000" points="33.939,46.529 31.149,45.427 29.725,49.033 28.301,45.427 25.512,46.529 28.112,53.116    25.512,59.697 28.301,60.799 29.723,57.199 31.401,61.45 34.191,60.348 31.337,53.117  "/>
  </g>
  <text x="0" y="115" fill="#000000" font-size="5px" font-weight="bold" font-family="'Helvetica Neue', Helvetica, Arial-Unicode, Arial, Sans-serif">
    Created by Christopher T. Howlett</text>
    <text x="0" y="120" fill="#000000" font-size="5px" font-weight="bold" font-family="'Helvetica Neue', Helvetica, Arial-Unicode, Arial, Sans-serif">
      from the Noun Project</text>
</svg>
