<svg xmlns="http://www.w3.org/2000/svg" viewBox="0 0 100 125">
  <path d="M91.354 34.433c-3.077-5.128-8.04-8.37-14.346-9.374-5.304-.845-8.89-.584-11.205-.065-4.67-3.806-11.932-5.137-19.773-3.49-5.79 1.222-10.045 4.923-13.462 7.897-3.716 3.232-5.93 5.037-8.38 4.398-8.07-2.124-12.852-2.016-15.958.378C6.084 35.83 5 38.465 5 42.014v19.413c0 5.005.99 8.076 3.206 9.963 3.018 2.555 7.11 1.887 11.85 1.108 4.688-.762 10.525-1.71 17.1 0l1.83.48c12.798 3.37 23.6 6.213 32.255 6.213 10.175 0 17.39-3.93 21.38-15.564 2.73-7.952 4.038-20.367-1.266-29.193zm-4.407 27.245c-5.368 15.624-17.388 13.14-46.433 5.497l-1.834-.48c-3.288-.862-6.394-1.167-9.265-1.167-3.95 0-7.45.574-10.332 1.05-3 .49-6.107.995-6.992.233-.327-.274-1.09-1.36-1.09-5.385v-19.41c0-1.59.3-2.626.892-3.084.774-.603 3.212-1.315 10.772.672 5.614 1.494 9.8-2.154 13.842-5.673C39.7 31.15 43 28.276 47.272 27.376c8.392-1.773 13.872.832 16.046 3.592 1.09 1.38 2.092 3.64.697 6.586-1.278 2.713-2.825 2.825-8.386 1.814-4.953-.905-11.74-2.145-16.533 4.425l4.84 3.54c2.468-3.355 5.65-2.965 10.614-2.06 4.842.88 11.458 2.08 14.892-5.145 1.518-3.206 1.66-6.56.475-9.608 1.524-.056 3.557.053 6.142.463 4.57.73 7.987 2.93 10.155 6.54 3.967 6.6 3.223 16.89.732 24.153z"/>
  <path d="M23.59 46.53l-2.79-1.103-1.42 3.6-1.422-3.6-2.79 1.102 2.6 6.582-2.6 6.585 2.79 1.102 1.42-3.603 1.68 4.253 2.79-1.102-2.857-7.236M33.94 46.53l-2.79-1.103-1.425 3.606-1.424-3.606-2.788 1.102 2.6 6.586-2.6 6.58 2.79 1.103 1.42-3.6 1.68 4.25 2.79-1.102-2.855-7.23"/>
  <text y="115" font-size="5" font-weight="bold" font-family="'Helvetica Neue', Helvetica, Arial-Unicode, Arial, Sans-serif">
    Created by Christopher T. Howlett</text>
    <text y="120" font-size="5" font-weight="bold" font-family="'Helvetica Neue', Helvetica, Arial-Unicode, Arial, Sans-serif">
      from the Noun Project</text>
</svg>
